<?xml version="1.0" encoding="UTF-8"?>
<svg id="Capa_1" xmlns="http://www.w3.org/2000/svg" version="1.1" viewBox="0 0 1222 864">
  <!-- Generator: Adobe Illustrator 30.2.1, SVG Export Plug-In . SVG Version: 2.1.1 Build 1)  -->
  <defs>
    <style>
      .st0 {
        fill: #fff;
      }

      .st1 {
        fill: #ecc125;
      }

      .st2 {
        fill: #2e9e4c;
      }
    </style>
  </defs>
  <g>
    <path class="st2" d="M264.29,353.1c0,24.78-14.03,46.28-34.58,57l-5.8,2.38c-1.06.38-2.07.85-3.02,1.41-5.36,3.13-8.95,8.93-8.95,15.59v132.85c-6.42-.62-12.7-1.73-18.78-3.31-14.2-3.67-27.4-9.84-39.09-18.01-18.29-12.76-32.92-30.44-41.96-51.1-2.22,14.41-6.99,27.98-13.8,40.26-19.53,35.17-55.94,59.65-98.3,62.48v-7.99c0-24.76,14.01-46.26,34.55-56.98l5.86-2.41c1.06-.38,2.07-.86,3.03-1.42,5.34-3.14,8.92-8.93,8.92-15.58v-132.85c6.41.62,12.69,1.73,18.76,3.31,14.21,3.67,27.42,9.84,39.11,18.02,18.29,12.76,32.92,30.44,41.96,51.09,2.22-14.42,6.99-27.99,13.82-40.27,19.52-35.16,55.93-59.63,98.28-62.47v7.99Z"/>
    <path class="st0" d="M173.76,510.6v-59.54c0-37.38,25.46-69.1,60.76-80.26-26.84,13.13-45.74,38.92-48.01,69.11l-.23,91.18c-12.72-5.03-24.25-12.25-34.07-21.16-2.08-1.89-4.08-3.85-6-5.89-1.64-1.73-3.22-3.51-4.73-5.34l-.07-.09c-3.87-4.68-7.12-9.9-9.65-15.52l-4.74-10.5c-7.58-16.77-19.02-31.33-33.53-41.71l-3.43-2.32v59.63c0,37.37-25.43,69.07-60.71,80.24,26.81-13.14,45.7-38.92,47.97-69.09l.23-91.16c12.72,5.03,24.25,12.25,34.08,21.16l10.71,11.22.07.09c3.85,4.64,7.09,9.83,9.61,15.42l4.81,10.64c7.57,16.76,19.01,31.31,33.52,41.69l3.42,2.22Z"/>
    <circle class="st1" cx="140.05" cy="362.17" r="34.41"/>
  </g>
  <g>
    <path class="st1" d="M419.64,493.03l-31.98.02-72.27-135.08c1.27,22.08,3.44,43.66,5.61,65.61l8.21,69.47-28.37-.06v-147.87s40.01,0,40.01,0l64.01,120.31c-.28-18.9-1.81-37.23-3.42-55.75l-7.44-64.54,25.62-.02v147.92Z"/>
    <path class="st1" d="M585.56,453.01h-52.33s-5.5,40.02-5.5,40.02h-31.73c13.16-50.5,29.63-99.48,49.71-147.89l33.66-.04c19.59,48.28,36.03,97.35,49.33,147.93l-32.58.03-10.55-40.05ZM581.67,440.26c-8.33-28.52-17.33-55.26-27.46-82.4-7.82,27.45-13.9,54.68-18.85,82.44l46.31-.04Z"/>
    <path class="st1" d="M1122.3,453.01h-52.33s-5.5,40.02-5.5,40.02h-31.73c13.16-50.5,29.63-99.48,49.71-147.89l33.66-.04c19.59,48.28,36.03,97.35,49.33,147.93l-32.58.03-10.55-40.05ZM1118.41,440.26c-8.33-28.52-17.33-55.26-27.46-82.4-7.82,27.45-13.9,54.68-18.85,82.44l46.31-.04Z"/>
    <path class="st1" d="M921.71,495.69c-16.65,1.3-35.63-1.77-50.82-9.59l2.54-24.96c5.83,6.31,12.03,11.5,19.51,15.33,8.81,4.51,20.01,7.23,29.67,4.49,6.08-1.72,10.72-6.03,12.73-12.03,3.17-9.47,1.15-18.98-6.28-25.91-3.59-3.34-7.57-5.97-11.94-8.27l-15.11-7.96c-14.03-7.39-25.93-16.8-28.98-33.28-1.33-7.18-1.16-14.3.56-21.37,2.75-11.29,10.28-20.18,20.82-24.99,6.39-2.91,12.96-4.27,20.08-4.83,14.77-.76,29.46,1.46,43.44,6.79l-3.83,24.08c-6.29-7.23-13.74-12.65-22.78-15.41-5.29-1.54-10.55-2.17-15.91-1.17-7.73,1.43-13.53,6.97-15.19,14.61-1.74,8.02.83,15.81,6.84,21.39,3.56,3.31,7.47,5.98,11.83,8.28l15.78,8.36c14.12,7.48,26.24,17.17,29.06,33.86,1.34,7.89.91,15.74-1.29,23.38-5.42,18.81-22.03,27.73-40.73,29.19Z"/>
    <path class="st1" d="M739.83,470.1c10.02,13.3,26.97,13.72,41.16,7.23,6.4-2.92,11.8-6.77,17.52-11.55l3.42,16.25c-8.59,6.64-18.27,10.89-28.9,12.84-11.5,1.94-23.12,1.46-34.3-1.77-24.19-6.97-37.68-27.22-41.88-51.2-2.59-14.76-2.49-29.75.18-44.5,4.41-24.33,18.14-44.77,42.57-52.08,19.78-5.92,43.07-3.64,61.26,7l-4.23,26.57c-3.49-4.44-6.69-8.29-10.53-12-2.93-2.65-5.85-4.94-9.26-6.88-12.8-7.21-28.82-3.58-37.23,8.47-2.82,4.05-4.93,8.25-6.5,12.99-5.61,16.87-5.99,39.12-4.07,56.68,1.2,10.98,4.11,23.07,10.78,31.93Z"/>
    <polygon class="st1" points="478.07 493.04 447.79 493.05 447.8 459.37 478.06 459.39 478.07 493.04"/>
    <polygon class="st1" points="677.94 493.04 647.67 493.05 647.67 459.37 677.94 459.39 677.94 493.04"/>
    <polygon class="st1" points="851.34 493.04 821.07 493.05 821.07 459.37 851.34 459.39 851.34 493.04"/>
    <polygon class="st1" points="1014.81 493.04 984.54 493.05 984.55 459.37 1014.81 459.39 1014.81 493.04"/>
    <polygon class="st1" points="1214.69 493.04 1184.42 493.05 1184.42 459.37 1214.68 459.39 1214.69 493.04"/>
  </g>
  <g>
    <path class="st2" d="M856.63,531.93v10.32c-3.23-2.3-6.44-2.1-9.32.39-1.43,1.3-2.58,2.76-3.67,4.4v26.8h-10.81s0-41.08,0-41.08l7.81-.04,1.77,8.71,2.23-4.21c2.98-4.57,6.35-6.4,11.99-5.3Z"/>
    <path class="st2" d="M782.79,532.89c-5.1-1.74-11.87-1.7-16.95.01-6.68,2.25-10.48,7.65-11.7,14.44-.68,3.8-.74,7.62-.17,11.44,1.02,6.89,4.68,12.49,11.45,14.8,5.1,1.73,11.86,1.71,16.95-.02,6.76-2.29,10.51-7.82,11.69-14.69.63-3.68.68-7.36.15-11.04-1-6.93-4.63-12.62-11.43-14.94ZM782.81,560.48c-.75,4.83-3.06,9.55-8.58,9.64-3.05.05-5.62-1.43-7.06-4.14-.92-1.74-1.51-3.57-1.82-5.58-.75-4.75-.74-9.57,0-14.32.31-1.98.89-3.79,1.77-5.5,1.43-2.75,4.02-4.26,7.11-4.21,2.93.05,5.4,1.5,6.79,4.13.9,1.71,1.49,3.52,1.8,5.5.74,4.81.74,9.68,0,14.49Z"/>
    <path class="st2" d="M336.36,517.48h9.76s0,56.36,0,56.36h-12.18s-27.55-51.47-27.55-51.47c.49,8.42,1.31,16.63,2.14,25l3.13,26.48-10.81-.02v-56.36s15.24,0,15.24,0l24.41,45.86c-.11-7.21-.69-14.19-1.31-21.25l-2.83-24.6Z"/>
    <path class="st2" d="M885.39,532.39c-4.25-1.14-8.8-1.05-13.05.19-4.23,1.24-7.62,4-9.71,7.82-2.89,5.29-3.36,12.33-2.54,18.19,1.04,7.3,4.96,13.19,12.25,15.3,3.23.93,6.48,1.13,9.86.86,5.04-.45,9.75-2.19,13.76-5.3l-1.52-4.33c-1.86,1.38-3.64,2.51-5.79,3.42-5.48,2.2-12.62,2.4-15.69-3.49-1.79-3.31-2.17-7.49-2.25-11.25h25.99c.36-4.49.18-8.96-1.64-13.11-1.8-4.14-5.25-7.12-9.67-8.3ZM886.2,549.52h-15.39c.27-5.2,1.48-13.36,8.24-13.31,2.02.01,3.8.87,4.95,2.55.81,1.14,1.27,2.42,1.63,3.79.5,2.26.64,4.49.57,6.98Z"/>
    <path class="st2" d="M483.69,532.38c-4.25-1.14-8.8-1.05-13.05.19-4.23,1.24-7.63,4-9.71,7.82-2.89,5.29-3.36,12.33-2.54,18.19,1.04,7.3,4.95,13.19,12.25,15.3,3.23.93,6.48,1.13,9.86.86,5.04-.45,9.75-2.19,13.76-5.3l-1.52-4.35c-1.86,1.39-3.64,2.52-5.79,3.43-5.48,2.2-12.62,2.39-15.69-3.49-1.79-3.31-2.17-7.49-2.25-11.25h25.99c.36-4.49.18-8.96-1.64-13.11-1.8-4.15-5.25-7.12-9.67-8.3ZM484.49,549.51h-15.39c.27-5.2,1.48-13.36,8.24-13.32,2.02.02,3.8.88,4.95,2.56.81,1.13,1.26,2.42,1.63,3.79.5,2.26.64,4.49.57,6.98Z"/>
    <path class="st2" d="M606.62,570.04c-8.37-4.61-22.79-1.96-22.2-7.29.11-.94.54-1.77,1.2-2.48,8.26,1.4,19.89.06,22.39-9.63,1.13-4.4.54-9.5-2.67-13.17l6.18-.04v-7.24s-11.36,3.86-11.36,3.86c-4.37-1.68-10.13-1.79-14.67-.88-5.3,1.06-9.69,4.04-11.12,9.45-.65,2.51-.71,5.04-.23,7.58.76,4.04,3.4,7.16,7.18,8.82-1.62,1.12-3,2.24-4.06,3.75-1.67,2.27-1.9,5.2-.52,7.64.83,1.32,1.99,2.18,3.44,2.96-2.04.92-3.81,1.96-5.38,3.45-2.89,2.74-3.57,7.05-1.4,10.43,3.55,5.54,15.69,5.68,21.45,5.2,2.64-.23,5.14-.76,7.6-1.71,5.62-2.17,9.5-6.56,9.12-12.87-.2-3.39-1.98-6.2-4.95-7.86ZM584.38,543.29c.48-2.79,1.92-5.31,4.83-6,1.3-.31,2.62-.3,3.92,0,2.92.68,4.37,3.19,4.86,5.98.52,3.05.48,7.26-1.08,10.01-1.58,2.77-4.77,3.46-7.69,2.8-5.36-1.23-5.57-8.52-4.83-12.79ZM600.13,586.6c-3.45,2.37-9.38,2.21-13.23,1.43-3.2-.64-6.07-2.5-6.05-6.1.02-3.18,1.64-5.15,4.1-6.99l6.14,1.08c3.2.56,10.19,1.26,11.2,4.92.58,2.15-.3,4.36-2.17,5.65Z"/>
    <path class="st2" d="M826.73,531.93v10.32c-3.23-2.3-6.43-2.1-9.32.39-1.43,1.3-2.57,2.76-3.67,4.4v26.8h-10.81s0-41.08,0-41.08l7.81-.04,1.79,8.71,2.23-4.21c2.98-4.57,6.35-6.4,11.98-5.3Z"/>
    <path class="st2" d="M642.09,532.94v10.32c-3.23-2.3-6.43-2.11-9.31.39-1.44,1.3-2.58,2.76-3.68,4.4v26.8h-10.81s0-41.08,0-41.08l7.82-.04,1.77,8.71,2.23-4.23c2.98-4.57,6.35-6.39,11.98-5.29Z"/>
    <polygon class="st2" points="1214.68 561.52 1214.68 574.35 1203.15 574.35 1203.15 561.51 1214.68 561.52"/>
    <polygon class="st2" points="1138.5 561.52 1138.52 574.35 1126.97 574.35 1126.98 561.51 1138.5 561.52"/>
    <path class="st2" d="M455.42,568.41l.64,4.27c-3.89,2.1-9.7,2.81-13.8,1.56-2.55-.76-4.49-2.56-5.39-5.08-.61-1.7-.89-3.42-.89-5.3v-26.43s-5.33-.04-5.33-.04v-4.67h5.73l6.13-12.42h4.29v12.42h8.87v4.68h-8.87v26.07c0,1.48.14,2.85.49,4.19.37,1.42,1.49,2.23,2.94,2.26,1.86.05,3.51-.56,5.2-1.52Z"/>
    <path class="st2" d="M537.71,518.5c-7.65,18.44-13.93,37.11-18.94,56.36h12.08l2.1-15.25h19.95l4.02,15.26h12.42c-5.07-19.29-11.33-37.99-18.8-56.39l-12.83.02ZM533.77,554.76c1.88-10.57,4.2-20.95,7.18-31.42,3.87,10.35,7.3,20.54,10.46,31.41h-17.64Z"/>
    <path class="st2" d="M979.28,532.89c-5.08-1.74-11.86-1.7-16.95.01-6.67,2.25-10.48,7.65-11.69,14.44-.69,3.8-.74,7.62-.17,11.44,1.02,6.89,4.68,12.49,11.44,14.8,5.1,1.73,11.86,1.71,16.95-.02,6.76-2.29,10.52-7.82,11.7-14.69.63-3.68.68-7.36.14-11.04-1-6.93-4.63-12.62-11.43-14.94ZM979.31,560.48c-.75,4.83-3.05,9.55-8.58,9.64-3.04.05-5.62-1.43-7.06-4.14-.92-1.74-1.5-3.57-1.82-5.58-.74-4.75-.74-9.57,0-14.32.31-1.98.89-3.79,1.79-5.5,1.43-2.75,4.02-4.26,7.1-4.21,2.94.05,5.42,1.5,6.8,4.13.89,1.71,1.49,3.52,1.79,5.5.75,4.81.75,9.68,0,14.49Z"/>
    <path class="st2" d="M673.95,533.9c-5.08-1.74-11.87-1.71-16.95.01-6.68,2.25-10.48,7.66-11.7,14.44-.68,3.8-.74,7.62-.17,11.44,1.04,6.88,4.68,12.49,11.45,14.8,5.1,1.73,11.86,1.7,16.95-.02,6.76-2.3,10.51-7.82,11.7-14.69.63-3.68.67-7.36.14-11.05-1-6.92-4.63-12.61-11.43-14.93ZM673.98,561.49c-.75,4.83-3.05,9.55-8.58,9.63-3.04.06-5.62-1.42-7.06-4.13-.92-1.74-1.51-3.57-1.82-5.58-.75-4.75-.74-9.57,0-14.32.31-1.99.89-3.79,1.77-5.5,1.43-2.76,4.04-4.26,7.11-4.21,2.94.05,5.4,1.5,6.79,4.13.9,1.71,1.49,3.51,1.8,5.5.74,4.81.75,9.68,0,14.49Z"/>
    <path class="st2" d="M931,533.13c-4.82-2.02-10.82-1.95-15.66-.27-7.02,2.46-10.76,8.57-11.79,15.71-.62,4.31-.51,8.64.33,12.91,1.13,5.76,4.23,10.87,10.11,12.62,3.21.96,6.6,1.05,9.83.15,3.67-1,6.55-3.25,8.92-6.4l1.26,6.01h7.81v-60.54h-10.82v19.81ZM931,562.61c-1.79,3.14-4.75,6.48-8.56,6.74-5.04.4-6.88-4.27-7.51-8.42-.89-5.77-1.14-16.74,2.76-21.56,3.27-4.18,9.36-3.61,13.31-.65v23.89Z"/>
    <path class="st2" d="M1023.24,531.93v10.32c-3.23-2.3-6.44-2.1-9.32.39-1.43,1.3-2.58,2.76-3.67,4.4v26.8h-10.82s0-41.08,0-41.08l7.82-.04,1.77,8.71,2.23-4.21c2.98-4.57,6.35-6.4,11.99-5.3Z"/>
    <path class="st2" d="M1119.04,555.32c.51,3.01.35,6-.49,8.92-2.07,7.17-8.39,10.56-15.52,11.12-6.35.5-13.58-.68-19.37-3.65l.96-9.51c2.23,2.4,4.58,4.38,7.44,5.85,3.36,1.71,7.63,2.75,11.31,1.7,2.31-.65,4.08-2.3,4.85-4.58,1.2-3.61.44-7.23-2.39-9.87-1.37-1.27-2.88-2.27-4.55-3.15l-5.76-3.02c-5.35-2.82-9.88-6.4-11.05-12.69-.5-2.74-.44-5.45.21-8.14,1.06-4.31,3.93-7.69,7.94-9.52,2.43-1.11,4.94-1.63,7.65-1.85,5.62-.29,11.23.56,16.55,2.6l-1.45,9.18c-2.4-2.76-5.24-4.83-8.68-5.88-2.02-.58-4.02-.82-6.07-.44-2.94.55-5.16,2.65-5.79,5.56-.67,3.06.31,6.04,2.61,8.15,1.36,1.26,2.85,2.29,4.5,3.15l6.02,3.19c5.38,2.86,10,6.55,11.07,12.91Z"/>
    <path class="st2" d="M1164.29,517.98c-7.65,18.45-13.93,37.12-18.94,56.37h12.08l2.1-15.26h19.95s4.01,15.27,4.01,15.27h12.43c-5.07-19.3-11.33-37.99-18.81-56.39h-12.82ZM1160.35,554.25c1.88-10.58,4.2-20.96,7.18-31.42,3.87,10.33,7.3,20.52,10.46,31.41h-17.64Z"/>
    <path class="st2" d="M1059.11,539.85c-1.64-5-5.98-7.16-10.94-7.91-7.07-.95-14.25.21-20.73,3.5l1.29,7.04c2.51-2.29,5.17-4.06,8.3-5.12,3.86-1.29,9.49-1.6,11.26,2.98.54,1.44.87,2.94.88,4.51l.05,5.39-6.23.02c-2.73,0-5.37.3-8,.95-4.79,1.19-8.99,3.92-10.01,9.04-1.06,5.31.69,10.71,5.83,13.17,1.94.93,3.95,1.3,6.13,1.42,4.79.27,9.32-1.43,12.73-4.77l1.49-1.52,1.23,5.32h7.65v-27.98c-.01-2.13-.29-4.07-.93-6.04ZM1049.22,563.79c-1,1.49-2.13,2.8-3.5,3.93-1.33,1.01-2.79,1.7-4.55,1.74-2.35.1-4.24-1.21-5.06-3.36-.83-2.18-.89-4.61-.32-6.89.5-1.96,1.87-3.38,3.73-4.1,1.29-.44,2.61-.67,3.99-.67h5.71s0,9.35,0,9.35Z"/>
    <path class="st2" d="M384.36,532.88c-5.08-1.74-11.86-1.7-16.95.01-6.67,2.25-10.46,7.65-11.69,14.44-.69,3.8-.74,7.62-.17,11.44,1.02,6.88,4.68,12.49,11.44,14.8,5.1,1.73,11.86,1.71,16.95-.02,6.76-2.3,10.52-7.82,11.7-14.69.63-3.68.68-7.36.14-11.05-1-6.92-4.63-12.61-11.43-14.93ZM384.38,560.47c-.75,4.83-3.05,9.55-8.58,9.64-3.04.05-5.62-1.43-7.06-4.14-.92-1.74-1.5-3.57-1.82-5.58-.74-4.75-.74-9.57,0-14.32.31-1.99.89-3.79,1.79-5.5,1.43-2.76,4.02-4.26,7.1-4.21,2.94.05,5.42,1.5,6.8,4.13.89,1.71,1.49,3.51,1.79,5.5.75,4.81.75,9.68,0,14.49Z"/>
    <path class="st2" d="M428.31,531.92v10.32c-3.23-2.3-6.44-2.11-9.32.39-1.43,1.3-2.58,2.76-3.67,4.4v26.8h-10.82s0-41.08,0-41.08l7.82-.04,1.77,8.71,2.23-4.23c2.98-4.56,6.35-6.39,11.99-5.29Z"/>
    <path class="st2" d="M748.82,563.47l1.31,6.19c-3.27,2.54-6.96,4.15-11.01,4.9-4.39.74-8.82.55-13.07-.68-9.23-2.65-14.37-10.37-15.96-19.51-.99-5.63-.95-11.35.07-16.96,1.68-9.27,6.91-17.06,16.21-19.85,7.55-2.25,16.42-1.39,23.36,2.67l-1.62,10.13c-1.33-1.69-2.55-3.17-4.01-4.57-1.12-1.01-2.23-1.88-3.52-2.63-4.88-2.74-10.99-1.36-14.19,3.24-1.08,1.54-1.88,3.14-2.48,4.94-2.14,6.44-2.29,14.92-1.55,21.61.45,4.18,1.56,8.79,4.11,12.17,3.81,5.07,10.27,5.23,15.68,2.76,2.44-1.12,4.5-2.58,6.68-4.4Z"/>
  </g>
</svg>