<?xml version="1.0" encoding="UTF-8"?>
<svg id="Capa_1" xmlns="http://www.w3.org/2000/svg" version="1.1" viewBox="0 0 1000 1000">
  <!-- Generator: Adobe Illustrator 30.2.1, SVG Export Plug-In . SVG Version: 2.1.1 Build 1)  -->
  <defs>
    <style>
      .st0 {
        fill: #fff;
      }

      .st1 {
        fill: #ecc125;
      }

      .st2 {
        fill: #2e9e4c;
      }
    </style>
  </defs>
  <path class="st2" d="M998.89,95.64c0,93.55-52.95,174.73-130.54,215.18-7.32,3.01-14.6,5.99-21.91,8.99-3.98,1.43-7.8,3.21-11.41,5.33-20.24,11.8-33.81,33.72-33.81,58.86v501.52c-24.25-2.33-47.94-6.54-70.91-12.49-53.6-13.86-103.43-37.14-147.56-67.98-69.06-48.19-124.27-114.91-158.4-192.92-8.39,54.41-26.38,105.63-52.11,151.97-73.72,132.77-211.19,225.18-371.09,235.89l-.02-30.15c0-93.49,52.91-174.65,130.45-215.1,7.39-3.03,14.73-6.05,22.12-9.08,4-1.44,7.83-3.24,11.44-5.36,20.15-11.85,33.69-33.72,33.69-58.83V179.97c24.22,2.33,47.9,6.54,70.82,12.49,53.64,13.86,103.51,37.14,147.63,68.02,69.06,48.19,124.27,114.91,158.4,192.89,8.39-54.44,26.38-105.68,52.15-152.01,73.68-132.72,211.15-225.11,371.02-235.85l.02,30.16v-.02Z"/>
  <path class="st0" d="M657.11,690.26v-224.78c0-141.13,96.12-260.87,229.38-302.99-101.35,49.55-172.69,146.94-181.24,260.9l-.89,344.21c-48.02-18.98-91.54-46.26-128.6-79.9-7.87-7.12-15.42-14.55-22.64-22.23-6.18-6.54-12.17-13.24-17.87-20.16l-.28-.33c-14.61-17.68-26.86-37.38-36.45-58.59l-17.91-39.64c-28.6-63.3-71.8-118.27-126.58-157.48l-12.95-8.75v225.11c0,141.08-96,260.74-229.19,302.92,101.22-49.59,172.53-146.94,181.08-260.82l.89-344.17c48.02,18.98,91.54,46.26,128.64,79.9l40.44,42.36.28.33c14.55,17.54,26.77,37.12,36.29,58.2l18.16,40.18c28.59,63.27,71.76,118.21,126.55,157.38l12.91,8.38v-.02Z"/>
  <circle class="st1" cx="529.84" cy="129.9" r="129.9"/>
</svg>