<?xml version="1.0" encoding="UTF-8"?>
<svg id="Capa_1" xmlns="http://www.w3.org/2000/svg" version="1.1" viewBox="0 0 1222 864">
  <!-- Generator: Adobe Illustrator 30.2.1, SVG Export Plug-In . SVG Version: 2.1.1 Build 1)  -->
  <defs>
    <style>
      .st0 {
        fill: #fff;
      }

      .st1 {
        fill: #ecc125;
      }

      .st2 {
        fill: #2e9e4c;
      }
    </style>
  </defs>
  <path class="st2" d="M1016.02,103.71c0,75.95-42.99,141.86-105.98,174.7-5.94,2.44-11.85,4.86-17.79,7.3-3.23,1.16-6.33,2.61-9.26,4.33-16.43,9.58-27.45,27.38-27.45,47.79v407.17c-19.69-1.89-38.92-5.31-57.57-10.14-43.52-11.25-83.97-30.15-119.8-55.19-56.07-39.12-100.89-93.29-128.6-156.63-6.81,44.17-21.42,85.76-42.31,123.38-59.85,107.79-171.46,182.82-301.28,191.51l-.02-24.48c0-75.9,42.96-141.79,105.91-174.63,6-2.46,11.96-4.91,17.96-7.37,3.25-1.17,6.36-2.63,9.29-4.35,16.36-9.62,27.35-27.38,27.35-47.76V172.17c19.66,1.89,38.89,5.31,57.5,10.14,43.55,11.25,84.04,30.15,119.86,55.22,56.07,39.12,100.89,93.29,128.6,156.6,6.81-44.2,21.42-85.8,42.34-123.41,59.82-107.75,171.43-182.76,301.22-191.48l.02,24.49Z"/>
  <path class="st0" d="M738.54,586.46v-182.49c0-114.58,78.04-211.79,186.23-245.99-82.28,40.23-140.2,119.3-147.14,211.82l-.72,279.45c-38.99-15.41-74.32-37.56-104.41-64.87-6.39-5.78-12.52-11.81-18.38-18.05-5.02-5.31-9.88-10.75-14.51-16.37l-.23-.27c-11.86-14.35-21.81-30.35-29.59-47.57l-14.54-32.18c-23.22-51.39-58.29-96.02-102.77-127.85l-10.51-7.1v182.76c0,114.54-77.94,211.69-186.07,245.93,82.18-40.26,140.07-119.3,147.01-211.75l.72-279.42c38.99,15.41,74.32,37.56,104.44,64.87l32.83,34.39.23.27c11.81,14.24,21.73,30.14,29.46,47.25l14.74,32.62c23.21,51.37,58.26,95.97,102.74,127.77l10.48,6.8Z"/>
  <circle class="st1" cx="635.22" cy="131.52" r="105.46"/>
</svg>